<svg width="745" height="658" viewBox="0 0 745 658" fill="none" xmlns="http://www.w3.org/2000/svg">
<g filter="url(#filter0_d_49_119)">
<path fill-rule="evenodd" clip-rule="evenodd" d="M330.695 581.013L125.169 441.697C107.491 429.714 107.629 410.286 125.477 398.303L332.98 258.987C350.828 247.004 379.627 247.004 397.305 258.987L602.831 398.303C620.509 410.286 620.371 429.714 602.524 441.697L395.02 581.013C377.172 592.996 348.373 592.996 330.695 581.013Z" fill="url(#paint0_linear_49_119)"/>
</g>
<g filter="url(#filter1_d_49_119)">
<path fill-rule="evenodd" clip-rule="evenodd" d="M331.838 509.013L125.322 369.697C107.559 357.714 107.559 338.286 125.322 326.303L331.838 186.987C349.6 175.004 378.4 175.004 396.162 186.987L602.678 326.303C620.441 338.286 620.441 357.714 602.678 369.697L396.162 509.013C378.4 520.996 349.6 520.996 331.838 509.013Z" fill="url(#paint1_linear_49_119)"/>
</g>
<g filter="url(#filter2_d_49_119)">
<path fill-rule="evenodd" clip-rule="evenodd" d="M330.838 437.013L124.322 297.697C106.559 285.714 106.559 266.286 124.322 254.303L330.838 114.987C348.6 103.004 377.4 103.004 395.162 114.987L601.678 254.303C619.441 266.286 619.441 285.714 601.678 297.697L395.162 437.013C377.4 448.996 348.6 448.996 330.838 437.013Z" fill="url(#paint2_linear_49_119)"/>
</g>
<rect opacity="0.01" x="187.021" y="126.91" width="162.129" height="102.528" transform="rotate(-31.9428 187.021 126.91)" fill="black"/>
<g clip-path="url(#clip0_49_119)">
<path d="M238.836 309.077C241.977 311.231 245.882 311.672 253.122 311.713L308.106 312.493L362.546 349.834C386.544 366.295 412.306 365.611 435.312 348.598L495.458 304.121C518.464 287.108 518.535 268.689 494.537 252.228L390.811 181.08C366.813 164.619 341.05 165.303 317.966 182.374L257.82 226.851C234.736 243.922 234.822 262.225 258.821 278.686L262.606 281.283L239.756 298.179C234.888 301.78 234.246 305.928 238.836 309.077ZM328.459 275.976C322.483 275.459 320.653 270.958 326.739 268.753L354.004 258.578L348.445 236.746C347.332 232.288 353.104 230.316 357.291 233.188L379.679 248.545L406.465 238.265C411.838 236.243 416.59 239.502 413.873 243.347L400.376 262.741L422.764 278.098C426.951 280.97 424.401 285.153 418.105 284.527L387.424 281.502L374.092 301.234C371.146 305.592 364.843 304.514 363.813 300.226L358.818 278.78L328.459 275.976Z" fill="url(#paint3_linear_49_119)" fill-opacity="0.85"/>
</g>
<defs>
<filter id="filter0_d_49_119" x="62" y="202" width="604" height="440" filterUnits="userSpaceOnUse" color-interpolation-filters="sRGB">
<feFlood flood-opacity="0" result="BackgroundImageFix"/>
<feColorMatrix in="SourceAlpha" type="matrix" values="0 0 0 0 0 0 0 0 0 0 0 0 0 0 0 0 0 0 127 0" result="hardAlpha"/>
<feOffset dy="2"/>
<feGaussianBlur stdDeviation="25"/>
<feColorMatrix type="matrix" values="0 0 0 0 0 0 0 0 0 0 0 0 0 0 0 0 0 0 0.126147 0"/>
<feBlend mode="normal" in2="BackgroundImageFix" result="effect1_dropShadow_49_119"/>
<feBlend mode="normal" in="SourceGraphic" in2="effect1_dropShadow_49_119" result="shape"/>
</filter>
<filter id="filter1_d_49_119" x="62" y="130" width="604" height="440" filterUnits="userSpaceOnUse" color-interpolation-filters="sRGB">
<feFlood flood-opacity="0" result="BackgroundImageFix"/>
<feColorMatrix in="SourceAlpha" type="matrix" values="0 0 0 0 0 0 0 0 0 0 0 0 0 0 0 0 0 0 127 0" result="hardAlpha"/>
<feOffset dy="2"/>
<feGaussianBlur stdDeviation="25"/>
<feColorMatrix type="matrix" values="0 0 0 0 0 0 0 0 0 0 0 0 0 0 0 0 0 0 0.126147 0"/>
<feBlend mode="normal" in2="BackgroundImageFix" result="effect1_dropShadow_49_119"/>
<feBlend mode="normal" in="SourceGraphic" in2="effect1_dropShadow_49_119" result="shape"/>
</filter>
<filter id="filter2_d_49_119" x="61" y="58" width="604" height="440" filterUnits="userSpaceOnUse" color-interpolation-filters="sRGB">
<feFlood flood-opacity="0" result="BackgroundImageFix"/>
<feColorMatrix in="SourceAlpha" type="matrix" values="0 0 0 0 0 0 0 0 0 0 0 0 0 0 0 0 0 0 127 0" result="hardAlpha"/>
<feOffset dy="2"/>
<feGaussianBlur stdDeviation="25"/>
<feColorMatrix type="matrix" values="0 0 0 0 0 0 0 0 0 0 0 0 0 0 0 0 0 0 0.126147 0"/>
<feBlend mode="normal" in2="BackgroundImageFix" result="effect1_dropShadow_49_119"/>
<feBlend mode="normal" in="SourceGraphic" in2="effect1_dropShadow_49_119" result="shape"/>
</filter>
<linearGradient id="paint0_linear_49_119" x1="112" y1="250" x2="112" y2="590" gradientUnits="userSpaceOnUse">
<stop stop-color="#4DEAD7"/>
<stop offset="1" stop-color="#746AE5"/>
</linearGradient>
<linearGradient id="paint1_linear_49_119" x1="112" y1="178" x2="112" y2="518" gradientUnits="userSpaceOnUse">
<stop stop-color="#B87EAB"/>
<stop offset="1" stop-color="#6AEED6"/>
</linearGradient>
<linearGradient id="paint2_linear_49_119" x1="111" y1="106" x2="111" y2="446" gradientUnits="userSpaceOnUse">
<stop stop-color="#F5EEAB"/>
<stop offset="1" stop-color="#4DBFFF"/>
</linearGradient>
<linearGradient id="paint3_linear_49_119" x1="442.674" y1="216.654" x2="334.343" y2="374.587" gradientUnits="userSpaceOnUse">
<stop stop-color="#CF306A"/>
<stop offset="1" stop-color="#CE26C7" stop-opacity="0.41"/>
</linearGradient>
<clipPath id="clip0_49_119">
<rect width="215.234" height="215.723" fill="white" transform="matrix(0.824647 0.565648 -0.804037 0.59458 364.449 148)"/>
</clipPath>
</defs>
</svg>
